<svg xmlns="http://www.w3.org/2000/svg" viewBox="0 0 1200 675" width="1200" height="675" font-family="Ubuntu, 'Segoe UI', sans-serif">
  <defs>
    <linearGradient id="bg" x1="0" y1="0" x2="1" y2="1">
      <stop offset="0" stop-color="#04263a"/>
      <stop offset="0.55" stop-color="#001524"/>
      <stop offset="1" stop-color="#00101c"/>
    </linearGradient>
    <linearGradient id="accent" x1="0" y1="0" x2="1" y2="0">
      <stop offset="0" stop-color="#2CACC9"/>
      <stop offset="1" stop-color="#7C5CFF"/>
    </linearGradient>
    <linearGradient id="good" x1="0" y1="0" x2="1" y2="0">
      <stop offset="0" stop-color="#3DDC84"/>
      <stop offset="1" stop-color="#2CACC9"/>
    </linearGradient>
  </defs>

  <rect width="1200" height="675" fill="url(#bg)"/>
  <!-- starfield -->
  <g fill="#ffffff">
    <circle cx="120" cy="70" r="1.4" opacity=".7"/><circle cx="300" cy="40" r="1" opacity=".5"/>
    <circle cx="1040" cy="60" r="1.6" opacity=".8"/><circle cx="1120" cy="150" r="1" opacity=".5"/>
    <circle cx="980" cy="120" r="1.2" opacity=".6"/><circle cx="150" cy="600" r="1.3" opacity=".6"/>
    <circle cx="1080" cy="560" r="1.5" opacity=".7"/><circle cx="640" cy="40" r="1" opacity=".5"/>
    <circle cx="1150" cy="420" r="1.2" opacity=".6"/><circle cx="60" cy="360" r="1.1" opacity=".5"/>
  </g>

  <!-- PRINT A4 badge -->
  <g transform="translate(980,150)">
    <rect x="0" y="0" width="150" height="56" rx="28" fill="#0a2f47" stroke="url(#accent)" stroke-width="2.5"/>
    <!-- printer icon -->
    <rect x="22" y="16" width="24" height="6" rx="2" fill="#2CACC9"/>
    <rect x="16" y="22" width="36" height="18" rx="4" fill="none" stroke="#2CACC9" stroke-width="2"/>
    <rect x="24" y="34" width="20" height="10" rx="2" fill="#2CACC9" opacity=".4"/>
    <text x="68" y="37" fill="#2CACC9" font-size="22" font-weight="700">A4</text>
  </g>

  <!-- Cartesian trend chart -->
  <g transform="translate(120,160)">
    <rect x="0" y="0" width="480" height="320" rx="16" fill="#0a2f47" stroke="#1f4f6b" stroke-width="2"/>
    <!-- axis labels -->
    <text x="240" y="30" text-anchor="middle" fill="#86b9cf" font-size="17" font-weight="500">Monthly Consistency</text>
    <!-- Y axis -->
    <text x="30" y="70" fill="#6f97ab" font-size="12" text-anchor="end">100%</text>
    <text x="30" y="148" fill="#6f97ab" font-size="12" text-anchor="end">75%</text>
    <text x="30" y="226" fill="#6f97ab" font-size="12" text-anchor="end">50%</text>
    <text x="30" y="295" fill="#6f97ab" font-size="12" text-anchor="end">25%</text>
    <!-- grid -->
    <g stroke="#16557a" stroke-width="1" opacity=".5">
      <line x1="42" y1="66" x2="460" y2="66" stroke-dasharray="4 4"/>
      <line x1="42" y1="144" x2="460" y2="144" stroke-dasharray="4 4"/>
      <line x1="42" y1="222" x2="460" y2="222" stroke-dasharray="4 4"/>
      <line x1="42" y1="290" x2="460" y2="290"/>
      <line x1="42" y1="50" x2="42" y2="290"/>
    </g>
    <!-- X axis labels (weeks) -->
    <text x="100" y="310" fill="#6f97ab" font-size="12" text-anchor="middle">W1</text>
    <text x="200" y="310" fill="#6f97ab" font-size="12" text-anchor="middle">W2</text>
    <text x="300" y="310" fill="#6f97ab" font-size="12" text-anchor="middle">W3</text>
    <text x="400" y="310" fill="#6f97ab" font-size="12" text-anchor="middle">W4</text>
    <!-- trend line -->
    <path d="M60 240 L100 200 L150 210 L200 170 L250 140 L300 120 L350 100 L400 82 L450 75"
          fill="none" stroke="url(#good)" stroke-width="3.5" stroke-linecap="round" stroke-linejoin="round"/>
    <!-- dots -->
    <g fill="#3DDC84">
      <circle cx="60" cy="240" r="5"/><circle cx="100" cy="200" r="5"/>
      <circle cx="150" cy="210" r="5"/><circle cx="200" cy="170" r="5"/>
      <circle cx="250" cy="140" r="5"/><circle cx="300" cy="120" r="5"/>
      <circle cx="350" cy="100" r="5"/><circle cx="400" cy="82" r="5"/>
      <circle cx="450" cy="75" r="5"/>
    </g>
  </g>

  <!-- checklist table -->
  <g transform="translate(660,160)">
    <rect x="0" y="0" width="420" height="320" rx="16" fill="#0a2f47" stroke="#1f4f6b" stroke-width="2"/>
    <text x="210" y="30" text-anchor="middle" fill="#86b9cf" font-size="17" font-weight="500">Daily Habits</text>
    <!-- header row -->
    <g fill="#16557a">
      <rect x="14" y="44" width="130" height="22" rx="4"/>
      <rect x="152" y="44" width="22" height="22" rx="3"/><rect x="180" y="44" width="22" height="22" rx="3"/>
      <rect x="208" y="44" width="22" height="22" rx="3"/><rect x="236" y="44" width="22" height="22" rx="3"/>
      <rect x="264" y="44" width="22" height="22" rx="3"/><rect x="292" y="44" width="22" height="22" rx="3"/>
      <rect x="320" y="44" width="22" height="22" rx="3"/><rect x="348" y="44" width="22" height="22" rx="3"/>
      <rect x="376" y="44" width="22" height="22" rx="3"/>
    </g>
    <!-- row 1: No Alcohol -->
    <g transform="translate(0,76)">
      <rect x="14" y="0" width="130" height="22" rx="4" fill="#0f3f5c"/>
      <text x="24" y="16" fill="#86b9cf" font-size="12">No Alcohol</text>
      <text x="163" y="16" text-anchor="middle" fill="#3DDC84" font-size="14" font-weight="700">✓</text>
      <text x="191" y="16" text-anchor="middle" fill="#3DDC84" font-size="14" font-weight="700">✓</text>
      <text x="219" y="16" text-anchor="middle" fill="#3DDC84" font-size="14" font-weight="700">✓</text>
      <text x="247" y="16" text-anchor="middle" fill="#3DDC84" font-size="14" font-weight="700">✓</text>
      <text x="275" y="16" text-anchor="middle" fill="#3DDC84" font-size="14" font-weight="700">✓</text>
      <text x="303" y="16" text-anchor="middle" fill="#3DDC84" font-size="14" font-weight="700">✓</text>
      <text x="331" y="16" text-anchor="middle" fill="#3DDC84" font-size="14" font-weight="700">✓</text>
      <text x="359" y="16" text-anchor="middle" fill="#FF6B6B" font-size="14" font-weight="700">✗</text>
      <text x="387" y="16" text-anchor="middle" fill="#3DDC84" font-size="14" font-weight="700">✓</text>
    </g>
    <!-- row 2: 6h+ Sleep -->
    <g transform="translate(0,104)">
      <rect x="14" y="0" width="130" height="22" rx="4" fill="#0f3f5c"/>
      <text x="24" y="16" fill="#86b9cf" font-size="12">6h+ Sleep</text>
      <text x="163" y="16" text-anchor="middle" fill="#3DDC84" font-size="14" font-weight="700">✓</text>
      <text x="191" y="16" text-anchor="middle" fill="#FF6B6B" font-size="14" font-weight="700">✗</text>
      <text x="219" y="16" text-anchor="middle" fill="#3DDC84" font-size="14" font-weight="700">✓</text>
      <text x="247" y="16" text-anchor="middle" fill="#3DDC84" font-size="14" font-weight="700">✓</text>
      <text x="275" y="16" text-anchor="middle" fill="#3DDC84" font-size="14" font-weight="700">✓</text>
      <text x="303" y="16" text-anchor="middle" fill="#FF6B6B" font-size="14" font-weight="700">✗</text>
      <text x="331" y="16" text-anchor="middle" fill="#3DDC84" font-size="14" font-weight="700">✓</text>
      <text x="359" y="16" text-anchor="middle" fill="#3DDC84" font-size="14" font-weight="700">✓</text>
      <text x="387" y="16" text-anchor="middle" fill="#3DDC84" font-size="14" font-weight="700">✓</text>
    </g>
    <!-- row 3: No Skipped Meals -->
    <g transform="translate(0,132)">
      <rect x="14" y="0" width="130" height="22" rx="4" fill="#0f3f5c"/>
      <text x="24" y="16" fill="#86b9cf" font-size="12">No Skipped Meals</text>
      <text x="163" y="16" text-anchor="middle" fill="#3DDC84" font-size="14" font-weight="700">✓</text>
      <text x="191" y="16" text-anchor="middle" fill="#3DDC84" font-size="14" font-weight="700">✓</text>
      <text x="219" y="16" text-anchor="middle" fill="#3DDC84" font-size="14" font-weight="700">✓</text>
      <text x="247" y="16" text-anchor="middle" fill="#FF6B6B" font-size="14" font-weight="700">✗</text>
      <text x="275" y="16" text-anchor="middle" fill="#3DDC84" font-size="14" font-weight="700">✓</text>
      <text x="303" y="16" text-anchor="middle" fill="#3DDC84" font-size="14" font-weight="700">✓</text>
      <text x="331" y="16" text-anchor="middle" fill="#3DDC84" font-size="14" font-weight="700">✓</text>
      <text x="359" y="16" text-anchor="middle" fill="#3DDC84" font-size="14" font-weight="700">✓</text>
      <text x="387" y="16" text-anchor="middle" fill="#3DDC84" font-size="14" font-weight="700">✓</text>
    </g>
    <!-- row 4: Supplements -->
    <g transform="translate(0,160)">
      <rect x="14" y="0" width="130" height="22" rx="4" fill="#0f3f5c"/>
      <text x="24" y="16" fill="#86b9cf" font-size="12">Supplements</text>
      <text x="163" y="16" text-anchor="middle" fill="#3DDC84" font-size="14" font-weight="700">✓</text>
      <text x="191" y="16" text-anchor="middle" fill="#3DDC84" font-size="14" font-weight="700">✓</text>
      <text x="219" y="16" text-anchor="middle" fill="#FF6B6B" font-size="14" font-weight="700">✗</text>
      <text x="247" y="16" text-anchor="middle" fill="#3DDC84" font-size="14" font-weight="700">✓</text>
      <text x="275" y="16" text-anchor="middle" fill="#3DDC84" font-size="14" font-weight="700">✓</text>
      <text x="303" y="16" text-anchor="middle" fill="#3DDC84" font-size="14" font-weight="700">✓</text>
      <text x="331" y="16" text-anchor="middle" fill="#3DDC84" font-size="14" font-weight="700">✓</text>
      <text x="359" y="16" text-anchor="middle" fill="#3DDC84" font-size="14" font-weight="700">✓</text>
      <text x="387" y="16" text-anchor="middle" fill="#3DDC84" font-size="14" font-weight="700">✓</text>
    </g>
    <!-- row 5: 14h Workday -->
    <g transform="translate(0,188)">
      <rect x="14" y="0" width="130" height="22" rx="4" fill="#0f3f5c"/>
      <text x="24" y="16" fill="#86b9cf" font-size="12">14h Workday</text>
      <text x="163" y="16" text-anchor="middle" fill="#3DDC84" font-size="14" font-weight="700">✓</text>
      <text x="191" y="16" text-anchor="middle" fill="#3DDC84" font-size="14" font-weight="700">✓</text>
      <text x="219" y="16" text-anchor="middle" fill="#3DDC84" font-size="14" font-weight="700">✓</text>
      <text x="247" y="16" text-anchor="middle" fill="#3DDC84" font-size="14" font-weight="700">✓</text>
      <text x="275" y="16" text-anchor="middle" fill="#FF6B6B" font-size="14" font-weight="700">✗</text>
      <text x="303" y="16" text-anchor="middle" fill="#3DDC84" font-size="14" font-weight="700">✓</text>
      <text x="331" y="16" text-anchor="middle" fill="#3DDC84" font-size="14" font-weight="700">✓</text>
      <text x="359" y="16" text-anchor="middle" fill="#3DDC84" font-size="14" font-weight="700">✓</text>
      <text x="387" y="16" text-anchor="middle" fill="#3DDC84" font-size="14" font-weight="700">✓</text>
    </g>
    <!-- row 6: Regular Schedule -->
    <g transform="translate(0,216)">
      <rect x="14" y="0" width="130" height="22" rx="4" fill="#0f3f5c"/>
      <text x="24" y="16" fill="#86b9cf" font-size="12">Regular Schedule</text>
      <text x="163" y="16" text-anchor="middle" fill="#3DDC84" font-size="14" font-weight="700">✓</text>
      <text x="191" y="16" text-anchor="middle" fill="#3DDC84" font-size="14" font-weight="700">✓</text>
      <text x="219" y="16" text-anchor="middle" fill="#3DDC84" font-size="14" font-weight="700">✓</text>
      <text x="247" y="16" text-anchor="middle" fill="#3DDC84" font-size="14" font-weight="700">✓</text>
      <text x="275" y="16" text-anchor="middle" fill="#3DDC84" font-size="14" font-weight="700">✓</text>
      <text x="303" y="16" text-anchor="middle" fill="#3DDC84" font-size="14" font-weight="700">✓</text>
      <text x="331" y="16" text-anchor="middle" fill="#FF6B6B" font-size="14" font-weight="700">✗</text>
      <text x="359" y="16" text-anchor="middle" fill="#3DDC84" font-size="14" font-weight="700">✓</text>
      <text x="387" y="16" text-anchor="middle" fill="#3DDC84" font-size="14" font-weight="700">✓</text>
    </g>
    <!-- more rows indicator -->
    <text x="24" y="260" fill="#6f97ab" font-size="13">+ 14 more habits...</text>
    <!-- score bar -->
    <rect x="14" y="274" width="390" height="24" rx="12" fill="#06283c"/>
    <rect x="14" y="274" width="322" height="24" rx="12" fill="url(#good)" opacity=".3"/>
    <text x="210" y="292" text-anchor="middle" fill="#3DDC84" font-size="14" font-weight="700">82% Consistency</text>
  </g>

  <!-- title -->
  <text x="120" y="100" fill="#ffffff" font-size="58" font-weight="700">Habit Tracker</text>
  <text x="123" y="595" fill="#2CACC9" font-size="26" font-weight="500" letter-spacing="1">Honest daily monitoring · printable monthly charts</text>
  <text x="123" y="630" fill="#6f97ab" font-size="20">20+ habits tracked daily: sleep, meals, supplements, schedule, and more</text>
</svg>
